<?xml version="1.0" encoding="utf-8"?>
<!-- Generator: Adobe Illustrator 24.1.1, SVG Export Plug-In . SVG Version: 6.00 Build 0)  -->
<svg version="1.1" id="Layer_1" xmlns="http://www.w3.org/2000/svg" xmlns:xlink="http://www.w3.org/1999/xlink" x="0px" y="0px"
	 viewBox="0 0 512 512" style="enable-background:new 0 0 512 512;" xml:space="preserve">
<g >
	<path fill="white" d="M192,437.3v21.3v0h0l0,0V437.3V416c-23.6,0-42.7,19.1-42.7,42.7c0,23.6,19.1,42.7,42.7,42.7c23.6,0,42.7-19.1,42.7-42.7
		c0-23.6-19.1-42.7-42.7-42.7V437.3z"/>
	<path fill="white" d="M426.7,437.3v21.3v0h0l0,0V437.3V416c-23.6,0-42.7,19.1-42.7,42.7c0,23.6,19.1,42.7,42.7,42.7c23.6,0,42.7-19.1,42.7-42.7
		c0-23.6-19.1-42.7-42.7-42.7V437.3z"/>
	<path fill="white" d="M21.3,53.3h67.8l53.7,268.5l0,0c6,30,32.3,51.5,62.8,51.5l1.1,0l-0.3-21.3v21.3h207.4V352l-0.4,21.3l1.2,0
		c30.5,0,56.8-21.5,62.8-51.5l0-0.2l34.1-179c1.2-6.2-0.5-12.7-4.5-17.6c-4-4.9-10.1-7.7-16.4-7.7H128c-11.8,0-21.3,9.6-21.3,21.3
		c0,11.8,9.6,21.3,21.3,21.3l336.9,0l-29.3,153.7l0-0.2c-2,10-10.8,17.2-20.9,17.2l-0.4,0l-0.4,0H206.5l-0.3,0l-0.5,0
		c-10.1,0-18.9-7.2 -20.9-17.2l0,0L127.6,27.8c-2-10-10.7-17.1-20.9-17.1H21.3C9.6,10.7,0,20.2,0,32C0,43.8,9.6,53.3,21.3,53.3z"/>
</g>
</svg>
